# AST/ASF file generated using VICON BodyLanguage
# -----------------------------------------------
:version 1.10
:name VICON
:units
  mass 1.0
  length 0.45
  angle deg
:documentation
   .ast/.asf automatically generated from VICON data using
   VICON BodyBuilder and BodyLanguage model FoxedUp or BRILLIANT.MOD
:root
   order TX TY TZ RX RY RZ
   axis XYZ
   position 0 0 0  
   orientation 0 0 0 
:bonedata
  begin
     id 1 
     name lhipjoint
     direction 0.645893 -0.654526 0.392961 
     length 2.38111 
     axis 0 0 0  XYZ
  end
  begin
     id 2 
     name lfemur
     direction 0.34202 -0.939693 0  
     length 6.6822  
     axis 0 0 20  XYZ
    dof rx ry rz
    limits (-160.0 20.0)
           (-70.0 70.0)
           (-60.0 70.0)
  end
  begin
     id 3 
     name ltibia
     direction 0.34202 -0.939693 0   
     length 6.93904   
     axis 0 0 20   XYZ
    dof rx
    limits (-10.0 170.0)
  end
  begin
     id 4 
     name lfoot
     direction 0.0694967 -0.190941 0.979138   
     length 2.13616   
     axis -90 7.62852e-016 20   XYZ
    dof rx rz
    limits (-45.0 90.0)
           (-70.0 20.0)
  end
  begin
     id 5 
     name ltoes
     direction 1.535e-011 -4.2202e-011 1   
     length 1.07536   
     axis -90 7.62852e-016 20   XYZ
    dof rx
    limits (-90.0 20.0)
  end
  begin
     id 6 
     name rhipjoint
     direction -0.700219 -0.612087 0.367481   
     length 2.54621  
     axis 0 0 0  XYZ 
  end
  begin
     id 7 
     name rfemur
     direction -0.34202 -0.939693 0   
     length 6.55353   
     axis 0 0 -20   XYZ
    dof rx ry rz
    limits (-160.0 20.0)
           (-70.0 70.0)
           (-70.0 60.0)
  end
  begin
     id 8 
     name rtibia
     direction -0.34202 -0.939693 0   
     length 6.8736   
     axis 0 0 -20   XYZ
    dof rx
    limits (-10.0 170.0)
 end
 begin
     id 9 
     name rfoot
     direction -0.0679995 -0.186827 0.980037   
     length 2.1218  
     axis -90 -7.62852e-016 -20   XYZ
    dof rx rz
    limits (-45.0 90.0)
           (-20.0 70.0)
  end
  begin
     id 10 
     name rtoes
     direction -1.53589e-011 -4.21772e-011 1   
     length 1.06864   
     axis -90 -7.62852e-016 -20   XYZ
    dof rx
    limits (-90.0 20.0)
  end
  begin
     id 11 
     name lowerback
     direction -0.0416607 0.996347 -0.0745409   
     length 2.12205   
     axis 0 0 0   XYZ
    dof rx ry rz
    limits (-20.0 45.0)
           (-30.0 30.0)
           (-30.0 30.0)
  end
  begin
     id 12 
     name upperback
     direction -0.000153993 0.999276 -0.0380568   
     length 2.12759   
     axis 0 0 0   XYZ
    dof rx ry rz
    limits (-20.0 45.0)
           (-30.0 30.0)
           (-30.0 30.0)
  end
  begin
     id 13 
     name thorax
     direction 0.0187671 0.999821 -0.00241421   
     length 2.13704   
     axis 0 0 0   XYZ
    dof rx ry rz
    limits (-20.0 45.0)
           (-30.0 30.0)
           (-30.0 30.0)
  end
  begin
     id 14 
     name lowerneck
     direction 0.0268157 0.964865 0.261374   
     length 1.65253   
     axis 0 0 0   XYZ
    dof rx ry rz
    limits (-20.0 45.0)
           (-30.0 30.0)
           (-30.0 30.0)
  end
  begin
     id 15 
     name upperneck
     direction 0.00263774 0.939908 -0.341418   
     length 1.72375   
     axis 0 0 0   XYZ
    dof rx ry rz
    limits (-20.0 45.0)
           (-30.0 30.0)
           (-30.0 30.0)
  end
  begin
     id 16
     name head
     direction -0.00526001 0.989001 -0.147818  
     length 1.74878  
     axis 0 0 0   XYZ
    dof rx ry rz
    limits (-20.0 45.0)
           (-30.0 30.0)
           (-30.0 30.0)
  end
  begin
     id 17 
     name lclavicle
     direction 0.881214 0.461162 -0.103884  
     length 3.25108  
     axis 0 0 0   XYZ
    dof ry rz
    limits (-20.0 10.0)
           (0.0 20.0)
  end
  begin
     id 18 
     name lhumerus
     direction 1 -4.4899e-011 3.38092e-027   
     length 4.87408   
     axis 180 -30 -90   XYZ
    dof rx ry rz
    limits (-60.0 90.0)
           (-90.0 90.0)
           (-90.0 90.0)
  end
  begin
     id 19
     name lradius
     direction 1 -4.48931e-011 9.96288e-027   
     length 2.76729   
     axis 180 -30 -90   XYZ
    dof rx
    limits (-10.0 170.0)
  end
  begin
     id 20
     name lwrist
     direction 1 -4.4896e-011 1.50617e-026   
     length 1.38364   
     axis -9.31234e-015 90 90   XYZ
    dof ry
    limits (-180.0 0.0)
 end
  begin
     id 21 
     name lhand
     direction 1 -4.49038e-011 3.01286e-026   
     length 0.98922   
     axis -1.92217e-014 90 90   XYZ
    dof rx rz
    limits (-90.0 90.0)
           (-45.0 45.0)
  end
  begin
     id 22 
     name lfingers
     direction 1 -4.49051e-011 6.02588e-026   
     length 0.797535   
     axis -3.84436e-014 90 90   XYZ
    dof rx
    limits (0.0 90.0)
  end
  begin
     id 23
     name lthumb
     direction 0.707107 -6.34901e-011 0.707107   
     length 1.14511   
     axis -90 45 2.19363e-014   XYZ
    dof rx rz
    limits (-45.0 45.0)
           (-45.0 45.0)
  end
  begin
     id 24 
     name rclavicle
     direction -0.893894 0.441652 -0.0767889   
     length 3.29361  
     axis 0 0 0   XYZ 
    dof ry rz
    limits (-10.0 20.0)
           (-20.0 0.0)
  end
  begin
     id 25 
     name rhumerus
     direction -1 -4.48945e-011 8.0491e-028  
     length 4.71404   
     axis 180 30 90   XYZ
    dof rx ry rz
    limits (-90.0 60.0)
           (-90.0 90.0)
           (-90.0 90.0)
  end
  begin
     id 26 
     name rradius
     direction -1 -4.48986e-011 9.27795e-027   
     length 2.83468   
     axis 180 30 90   XYZ
    dof rx
    limits (-10.0 170.0)
  end
  begin
     id 27 
     name rwrist
     direction -1 -4.49029e-011 1.5064e-026   
     length 1.41734   
     axis -9.31234e-015 -90 -90   XYZ
    dof ry
    limits (-180.0 0.0)
  end
  begin
     id 28
     name rhand
     direction -1 -4.48857e-011 3.01165e-026   
     length 0.868195   
     axis -1.92217e-014 -90 -90   XYZ
    dof rx rz
    limits (-90.0 90.0)
           (-45.0 45.0)
  end
  begin
     id 29
     name rfingers
     direction -1 -4.49048e-011 6.02585e-026   
     length 0.699961   
     axis -3.84436e-014 -90 -90   XYZ
    dof rx
    limits (0.0 90.0)
  end
  begin
     id 30
     name rthumb
     direction -0.707107 -6.34854e-011 0.707107   
     length 1.00501   
     axis -90 -45 -2.19363e-014   XYZ
    dof rx rz
    limits (-45.0 45.0)
           (-45.0 45.0)
  end
:hierarchy
  begin
    root lhipjoint rhipjoint lowerback
    lhipjoint lfemur
    lfemur ltibia
    ltibia lfoot
    lfoot ltoes
    rhipjoint rfemur
    rfemur rtibia
    rtibia rfoot
    rfoot rtoes
    lowerback upperback
    upperback thorax
    thorax lowerneck lclavicle rclavicle
    lowerneck upperneck
    upperneck head
    lclavicle lhumerus
    lhumerus lradius
    lradius lwrist
    lwrist lhand lthumb
    lhand lfingers
    rclavicle rhumerus
    rhumerus rradius
    rradius rwrist
    rwrist rhand rthumb
    rhand rfingers
  end

#!OML:ASF H:\ManfredObstacles\Project 1\Capture day 2\Session 1\male.ASF
:FULLY-SPECIFIED
:DEGREES
159
root 1.21259 15.9011 28.0022 -169.006 4.49406 175.695
lowerback -4.41039 0.873212 -4.86352
upperback 0.172367 1.47167 -0.76007
thorax 2.55162 0.688275 2.03921
lowerneck -35.8894 0.65754 1.21883
upperneck 35.0413 1.49997 -0.515799
head 19.6074 0.989397 0.0530149
rclavicle -1.91827e-014 3.57812e-015
rhumerus -32.9861 -16.287 -78.7835
rradius 24.7647
rwrist 35.7387
rhand -0.525781 -7.24233
rfingers 7.12502
rthumb 25.0867 -35.6145
lclavicle -1.91827e-014 3.57812e-015
lhumerus -26.9175 19.8668 81.1236
lradius 19.7571
lwrist -52.4029
lhand 0.506582 5.77316
lfingers 7.12502
lthumb 26.0755 34.0033
rfemur -3.69877 3.42097 21.5468
rtibia 16.1366
rfoot -10.9788 -20.585
rtoes -16.1176
lfemur -29.0513 -8.46265 -19.6206
ltibia 27.9443
lfoot 2.29745 18.2596
ltoes 9.90742
160
root 1.19778 15.9017 27.9709 -169.011 4.53379 175.625
lowerback -4.42775 0.988921 -4.94311
upperback 0.225174 1.63761 -0.845864
thorax 2.60481 0.769266 2.00657
lowerneck -35.6113 0.605494 1.29524
upperneck 34.7192 1.32501 -0.480279
head 19.3483 0.932338 0.00525505
rclavicle -2.30342e-014 -9.74045e-015
rhumerus -32.9458 -16.4688 -78.8495
rradius 24.8263
rwrist 35.6537
rhand -0.516715 -7.45798
rfingers 7.12502
rthumb 25.0954 -35.8289
lclavicle -2.30342e-014 -9.74045e-015
lhumerus -26.8533 19.7137 81.1017
lradius 19.7252
lwrist -52.3705
lhand 0.64824 5.91902
lfingers 7.12502
lthumb 26.2111 34.1291
rfemur -3.59087 3.43707 21.3907
rtibia 16.1642
rfoot -10.9308 -20.5814
rtoes -16.4343
lfemur -28.9574 -8.41452 -19.8063
ltibia 28.0281
lfoot 1.98561 18.376
ltoes 9.54569
161
root 1.18226 15.9011 27.9373 -169.026 4.58367 175.686
lowerback -4.23326 0.899037 -4.78628
upperback 0.110275 1.49182 -0.809232
thorax 2.38972 0.704927 1.94199
lowerneck -36.0105 0.599985 1.10023
upperneck 34.9773 1.43678 -0.462077
head 19.5956 0.950024 0.080799
rclavicle 2.21148e-015 -5.96354e-016
rhumerus -33.0103 -15.8596 -79.0227
rradius 24.8758
rwrist 35.4748
rhand -0.440759 -7.41627
rfingers 7.12502
rthumb 25.1681 -35.777
lclavicle 2.21148e-015 -5.96354e-016
lhumerus -27.366 20.497 80.6169
lradius 19.694
lwrist -53.3753
lhand 0.437221 5.67729
lfingers 7.12502
lthumb 26.0091 33.9172
rfemur -3.44262 3.50114 21.3766
rtibia 16.1782
rfoot -10.8481 -20.5751
rtoes -16.8227
lfemur -28.8549 -8.33131 -19.8548
ltibia 28.142
lfoot 1.63222 18.4915
ltoes 9.03523
162
root 1.16553 15.901 27.9039 -168.998 4.59146 175.683
lowerback -4.39277 0.955022 -4.83485
upperback 0.2323 1.5797 -0.774302
thorax 2.59715 0.740154 2.01548
lowerneck -35.7178 0.606915 1.0632
upperneck 34.4533 1.41752 -0.49072
head 19.2174 0.915129 0.056614
rclavicle -1.46355e-014 2.54444e-014
rhumerus -32.7804 -15.8097 -79.0188
rradius 24.8785
rwrist 35.564
rhand -0.526485 -7.36846
rfingers 7.12502
rthumb 25.086 -35.7407
lclavicle -1.46355e-014 2.54444e-014
lhumerus -27.1536 20.6329 80.7421
lradius 19.6205
lwrist -53.0373
lhand 0.780852 5.86485
lfingers 7.12502
lthumb 26.3381 34.056
rfemur -3.34664 3.55137 21.287
rtibia 16.2053
rfoot -10.8214 -20.5834
rtoes -17.1052
lfemur -28.8031 -8.35267 -19.9599
ltibia 28.2597
lfoot 1.29798 18.6908
ltoes 8.73797
163
root 1.14914 15.9022 27.869 -168.987 4.60404 175.683
lowerback -4.32024 1.11589 -4.73949
upperback 0.118247 1.79034 -0.932665
thorax 2.43187 0.855232 1.80844
lowerneck -35.8762 1.25138 0.448858
upperneck 35.0036 0.599245 0.124079
head 19.5654 -0.0102594 0.0288699
rclavicle 8.02593e-015 -1.74931e-014
rhumerus -33.0706 -16.1262 -79.0461
rradius 24.9334
rwrist 35.5135
rhand -0.575211 -7.33194
rfingers 7.12502
rthumb 25.0393 -35.7107
lclavicle 8.02593e-015 -1.74931e-014
lhumerus -27.3445 20.1197 80.5773
lradius 19.5292
lwrist -53.4525
lhand 0.65822 5.85738
lfingers 7.12502
lthumb 26.2207 34.066
rfemur -3.22595 3.5606 21.2022
rtibia 16.2229
rfoot -10.766 -20.5461
rtoes -17.4329
lfemur -28.7286 -8.28606 -20.0814
ltibia 28.3853
lfoot 0.940025 18.8563
ltoes 8.2241
164
root 1.13173 15.9016 27.8316 -168.992 4.63157 175.726
lowerback -4.41843 1.08449 -4.69044
upperback 0.186286 1.7499 -0.875386
thorax 2.55945 0.830206 1.84107
lowerneck -35.8744 0.463872 1.21854
upperneck 35.0047 1.19091 -0.501762
head 19.5778 0.874479 -0.0220491
rclavicle -3.02153e-014 -3.77691e-015
rhumerus -32.877 -15.7954 -79.1473
rradius 24.9929
rwrist 35.3787
rhand -0.33429 -7.57537
rfingers 7.12502
rthumb 25.2701 -35.9217
lclavicle -3.02153e-014 -3.77691e-015
lhumerus -27.3335 20.4465 80.5101
lradius 19.4483
lwrist -53.2613
lhand 0.708784 5.89791
lfingers 7.12502
lthumb 26.2691 34.0994
rfemur -3.08327 3.65171 21.1636
rtibia 16.2641
rfoot -10.654 -20.6092
rtoes -17.7804
lfemur -28.6149 -8.47792 -20.1006
ltibia 28.5124
lfoot 0.572731 19.2908
ltoes 7.85846
165
root 1.11199 15.902 27.7922 -168.942 4.62288 175.724
lowerback -4.35038 1.0277 -4.76722
upperback 0.161719 1.66687 -0.751752
thorax 2.49539 0.787609 2.00422
lowerneck -35.8791 0.570639 1.08431
upperneck 34.902 1.408 -0.471056
head 19.519 0.936424 0.0704385
rclavicle 1.76918e-014 -1.23246e-014
rhumerus -32.7248 -15.4382 -79.0983
rradius 24.934
rwrist 35.5053
rhand -0.395215 -7.52454
rfingers 7.12502
rthumb 25.2118 -35.8791
lclavicle 1.76918e-014 -1.23246e-014
lhumerus -27.5667 21.3263 80.2901
lradius 19.3226
lwrist -54.2899
lhand 0.622812 5.61883
lfingers 7.12502
lthumb 26.1868 33.8325
rfemur -2.98875 3.75639 21.07
rtibia 16.308
rfoot -10.6835 -20.6635
rtoes -18.0108
lfemur -28.561 -8.63108 -20.1814
ltibia 28.6369
lfoot 0.112886 19.6531
ltoes 7.87671
166
root 1.09337 15.9022 27.7549 -168.904 4.60377 175.788
lowerback -4.30844 1.04078 -4.57519
upperback 0.114961 1.67354 -0.819226
thorax 2.43033 0.79654 1.82615
lowerneck -35.892 0.561349 1.17241
upperneck 34.9941 1.34619 -0.454887
head 19.5767 0.933042 0.0495055
rclavicle 3.29486e-014 -3.57812e-015
rhumerus -32.7257 -15.2296 -79.2862
rradius 24.9466
rwrist 35.1802
rhand -0.449759 -7.40821
rfingers 7.12502
rthumb 25.1595 -35.7702
lclavicle 3.29486e-014 -3.57812e-015
lhumerus -27.632 21.0942 80.2387
lradius 19.3502
lwrist -53.6198
lhand 0.854859 6.01577
lfingers 7.12502
lthumb 26.4089 34.1963
rfemur -2.88571 3.8387 21.0525
rtibia 16.3443
rfoot -10.6979 -20.6718
rtoes -18.1741
lfemur -28.5163 -8.5627 -20.2439
ltibia 28.7897
lfoot -0.317233 19.7547
ltoes 7.69388
167
root 1.07187 15.902 27.7131 -168.883 4.56775 175.794
lowerback -4.33043 3.18166 -3.61071
upperback -0.198469 4.61964 -3.04468
thorax 2.19062 2.33662 -0.829736
lowerneck -37.6843 -0.0377429 4.0755
upperneck 35.4844 -3.31835 -0.855837
head 20.1764 -1.07295 -2.12823
rclavicle -2.03257e-014 -4.67144e-014
rhumerus -35.5679 -23.4882 -78.7247
rradius 25.6212
rwrist 36.2731
rhand -0.52936 -7.38752
rfingers 7.12502
rthumb 25.0832 -35.7602
lclavicle -2.03257e-014 -4.67144e-014
lhumerus -26.2561 11.9003 80.4073
lradius 19.1134
lwrist -52.2518
lhand 1.12754 5.94307
lfingers 7.12502
lthumb 26.6699 34.0842
rfemur -2.77779 3.80131 20.965
rtibia 16.3992
rfoot -10.59 -20.6994
rtoes -18.6027
lfemur -28.4398 -8.82658 -20.3079
ltibia 28.9365
lfoot -0.573789 20.1645
ltoes 7.40384
168
root 1.05116 15.8991 27.6718 -168.854 4.62055 175.834
lowerback -4.43335 1.1389 -4.50511
upperback 0.111792 1.80917 -0.849418
thorax 2.49151 0.86412 1.76716
lowerneck -35.5103 1.4409 0.62067
upperneck 34.7539 0.828324 0.0655182
head 19.3325 0.0975878 0.0320283
rclavicle 1.17283e-014 2.38542e-014
rhumerus -32.699 -15.4787 -79.2139
rradius 24.9065
rwrist 35.6974
rhand -0.534329 -7.37808
rfingers 7.12502
rthumb 25.0785 -35.7514
lclavicle 1.17283e-014 2.38542e-014
lhumerus -27.8306 21.0454 80.1275
lradius 19.3468
lwrist -53.6719
lhand 1.01853 6.07069
lfingers 7.12502
lthumb 26.5656 34.2276
rfemur -2.69309 3.82405 20.9034
rtibia 16.4816
rfoot -10.4549 -20.6805
rtoes -19.1179
lfemur -28.3664 -8.84614 -20.3792
ltibia 29.0779
lfoot -0.913526 20.4347
ltoes 7.02686
169
root 1.02917 15.8977 27.6307 -168.815 4.61973 175.846
lowerback -4.61382 1.10629 -4.50258
upperback 0.202624 1.77249 -0.751386
thorax 2.68587 0.838041 1.87042
lowerneck -35.6257 0.678171 1.2634
upperneck 34.5205 1.48165 -0.612362
head 19.2391 0.955458 -0.0174118
rclavicle 1.50579e-014 7.7526e-015
rhumerus -32.3904 -15.2961 -79.1411
rradius 24.8224
rwrist 35.5299
rhand -0.495689 -7.31722
rfingers 7.12502
rthumb 25.1155 -35.6853
lclavicle 1.50579e-014 7.7526e-015
lhumerus -27.9021 21.9866 79.9171
lradius 19.1852
lwrist -54.9786
lhand 0.799238 5.72232
lfingers 7.12502
lthumb 26.3557 33.9108
rfemur -2.61399 3.84191 20.8142
rtibia 16.5767
rfoot -10.4251 -20.6999
rtoes -19.4373
lfemur -28.3108 -8.87755 -20.4842
ltibia 29.2075
lfoot -1.22796 20.6011
ltoes 6.82327
170
root 1.00632 15.8979 27.5831 -168.829 4.65548 175.87
lowerback -4.5908 1.24164 -4.33457
upperback 0.118679 1.95037 -0.939213
thorax 2.5868 0.935819 1.59262
lowerneck -35.6934 1.4227 0.837927
upperneck 34.7099 0.757406 -0.0965384
head 19.3532 0.0821882 -0.0995061
rclavicle -3.75206e-015 -4.96962e-015
rhumerus -32.6792 -15.7735 -79.1958
rradius 24.9134
rwrist 35.549
rhand -0.371792 -7.44068
rfingers 7.12502
rthumb 25.2342 -35.7921
lclavicle -3.75206e-015 -4.96962e-015
lhumerus -27.9505 21.1074 79.9375
lradius 19.2562
lwrist -53.8395
lhand 1.18771 6.12736
lfingers 7.12502
lthumb 26.7275 34.2597
rfemur -2.48328 3.93119 20.7434
rtibia 16.7108
rfoot -10.4137 -20.7698
rtoes -19.7564
lfemur -28.1384 -9.06544 -20.5604
ltibia 29.3186
lfoot -1.42706 20.9835
ltoes 6.69475
171
root 0.983106 15.8974 27.538 -168.811 4.66482 175.878
lowerback -4.51874 -0.520405 -4.62643
upperback 0.43696 -0.460009 0.812123
thorax 3.03205 -0.310969 3.40547
lowerneck -38.6949 1.85558 -1.20228
upperneck 35.7031 4.93397 -0.613914
head 20.6515 1.82167 1.36838
rclavicle 1.19271e-014 -1.70955e-014
rhumerus -30.1403 -8.5141 -79.4702
rradius 24.5693
rwrist 34.2561
rhand -0.263196 -7.55524
rfingers 7.12502
rthumb 25.3383 -35.892
lclavicle 1.19271e-014 -1.70955e-014
lhumerus -29.4363 29.1153 79.3587
lradius 19.5279
lwrist -56.0834
lhand 0.814817 5.60644
lfingers 7.12502
lthumb 26.3706 33.7927
rfemur -2.3798 3.98807 20.6503
rtibia 16.8185
rfoot -10.3273 -20.8043
rtoes -20.1285
lfemur -28.0209 -9.17126 -20.6664
ltibia 29.431
lfoot -1.67775 21.2604
ltoes 6.3784
172
root 0.958214 15.8954 27.4872 -168.798 4.72377 175.876
lowerback -4.57034 1.13311 -4.43685
upperback 0.0682885 1.79703 -0.711332
thorax 2.52167 0.856627 1.87334
lowerneck -35.819 0.568613 1.02405
upperneck 34.9899 1.45033 -0.433411
head 19.5562 0.957198 0.11301
rclavicle 2.71341e-014 -1.33186e-014
rhumerus -32.5349 -14.9137 -79.0747
rradius 24.9667
rwrist 35.5033
rhand -0.514888 -7.11852
rfingers 7.12502
rthumb 25.0971 -35.4892
lclavicle 2.71341e-014 -1.33186e-014
lhumerus -28.5756 22.7159 79.4117
lradius 19.0784
lwrist -55.4315
lhand 0.955258 5.50261
lfingers 7.12502
lthumb 26.505 33.6687
rfemur -2.26184 4.08533 20.5371
rtibia 16.9437
rfoot -10.3487 -20.8508
rtoes -20.4448
lfemur -27.861 -9.25645 -20.7959
ltibia 29.5177
lfoot -1.99928 21.6102
ltoes 5.63967
